<?xml version="1.0" standalone="no"?>
<!DOCTYPE svg PUBLIC "-//W3C//DTD SVG 20010904//EN"
 "http://www.w3.org/TR/2001/REC-SVG-20010904/DTD/svg10.dtd">
<svg version="1.0" xmlns="http://www.w3.org/2000/svg"
 width="427.000000pt" height="427.000000pt" viewBox="0 0 427.000000 427.000000"
 preserveAspectRatio="xMidYMid meet">

<g transform="translate(0.000000,427.000000) scale(0.100000,-0.100000)"
fill="#000000" stroke="none">
<path d="M2658 3972 c-79 -28 -135 -83 -174 -169 0 -2 -23 3 -50 11 -138 39
-239 51 -424 50 -154 -1 -209 -5 -326 -27 -481 -88 -712 -198 -952 -451 -93
-99 -165 -235 -207 -391 -51 -191 -78 -280 -93 -310 -9 -16 -21 -52 -27 -80
-14 -59 2 -164 34 -235 14 -32 21 -66 21 -115 0 -64 -4 -77 -38 -135 -21 -36
-66 -92 -101 -125 -35 -33 -75 -80 -89 -105 -14 -25 -31 -52 -38 -60 -35 -42
-74 -141 -73 -187 2 -112 44 -155 143 -147 45 4 66 2 80 -9 24 -17 26 -70 4
-94 -30 -34 -31 -62 -5 -102 23 -35 24 -39 9 -67 -37 -70 -3 -171 65 -196 49
-18 58 -96 23 -195 -37 -105 -22 -186 47 -263 118 -131 251 -158 468 -94 65
19 102 24 133 20 119 -16 156 -70 164 -236 6 -108 19 -156 61 -217 12 -18 30
-33 39 -33 15 0 12 10 -17 55 -39 61 -55 125 -55 225 0 94 -41 177 -102 208
-74 36 -111 37 -232 3 -193 -55 -340 -34 -422 58 -70 78 -95 193 -60 276 25
57 26 163 3 198 -13 20 -24 26 -37 22 -36 -12 -82 82 -65 134 4 12 16 31 28
41 l21 20 -32 33 c-37 38 -40 68 -12 104 26 33 26 87 0 113 -27 27 -61 34
-113 22 -106 -22 -146 67 -90 206 35 90 87 165 177 256 135 136 176 269 121
391 -14 33 -31 94 -37 135 -11 73 -10 77 20 146 30 72 55 152 97 320 48 189
135 340 256 446 30 25 70 60 89 78 85 77 230 158 373 209 101 35 335 94 447
111 243 37 546 26 714 -27 57 -18 59 -19 71 -65 6 -26 17 -54 24 -62 7 -8 10
-23 7 -33 -4 -12 4 -29 20 -47 15 -15 28 -38 29 -50 1 -11 3 -24 4 -28 0 -5
10 -8 21 -8 24 0 28 37 6 46 -9 4 -17 27 -22 60 -5 41 -10 54 -20 50 -8 -3
-21 5 -29 17 -18 28 -39 86 -33 93 6 6 209 -64 319 -111 115 -48 251 -127 345
-200 124 -96 154 -125 154 -151 0 -30 -20 -74 -34 -74 -6 0 -24 -16 -39 -35
-21 -27 -24 -35 -12 -35 26 0 77 30 72 43 -2 7 1 23 9 37 7 14 15 33 18 44 5
16 11 12 39 -25 58 -76 132 -192 151 -237 17 -38 18 -44 4 -60 -9 -9 -21 -33
-27 -53 -15 -45 5 -102 67 -198 33 -50 42 -73 42 -108 0 -36 -3 -43 -19 -43
-12 0 -28 -15 -42 -39 -12 -22 -26 -39 -32 -38 -5 1 -12 -4 -14 -10 -6 -16 23
-17 32 -3 4 6 24 18 45 26 37 15 39 19 46 70 8 71 3 88 -55 174 -60 89 -70
132 -43 192 l20 43 40 -85 c55 -118 109 -283 116 -355 3 -33 11 -92 17 -132
24 -148 -41 -433 -147 -646 -60 -121 -72 -140 -158 -245 -55 -67 -61 -72 -73
-56 -7 10 -10 27 -7 38 8 27 57 78 107 113 43 30 67 69 67 108 0 14 5 25 10
25 22 0 8 26 -26 48 -20 13 -37 22 -39 20 -7 -7 18 -93 28 -100 21 -13 -15
-64 -78 -111 -36 -27 -70 -63 -80 -83 -14 -31 -15 -38 -1 -64 14 -28 13 -31
-12 -61 -27 -30 -185 -162 -250 -208 -33 -23 -33 -23 -100 -6 -121 30 -203 76
-249 137 -25 35 -32 67 -10 48 75 -64 85 -67 191 -52 81 11 176 45 176 62 0 6
8 10 18 10 11 0 39 13 63 30 24 16 49 30 56 30 7 0 18 10 24 22 7 13 29 42 50
65 22 24 39 49 39 56 0 8 9 22 21 33 16 15 20 27 16 56 -4 28 0 41 14 54 19
17 25 57 13 88 -7 18 -44 22 -60 6 -5 -5 -25 -6 -44 -2 -19 4 -61 7 -92 7 -34
0 -60 5 -62 11 -3 7 -29 26 -59 43 -48 27 -59 30 -83 20 -22 -8 -39 -7 -68 2
-36 12 -40 12 -50 -6 -15 -25 -44 -53 -101 -94 -39 -29 -46 -39 -42 -60 3 -14
-2 -36 -11 -49 -12 -19 -13 -28 -4 -42 8 -14 8 -21 -1 -29 -10 -7 -17 0 -30
30 -18 42 -36 51 -38 19 -1 -11 -3 -24 -4 -30 -1 -5 -3 -13 -4 -16 -2 -10 -41
42 -41 54 0 22 -36 36 -98 39 -36 1 -71 -2 -78 -8 -8 -6 -21 -6 -40 1 -19 8
-42 8 -75 1 -33 -7 -66 -7 -106 0 -32 6 -77 9 -100 6 -24 -2 -46 0 -53 7 -9 9
-108 25 -179 27 -13 1 -32 -8 -43 -18 -19 -19 -19 -20 21 -69 23 -27 41 -52
41 -57 0 -4 14 -14 30 -21 18 -7 38 -27 48 -47 12 -24 27 -36 53 -44 21 -5 45
-17 55 -26 11 -9 30 -20 44 -24 14 -4 38 -19 54 -32 24 -20 36 -23 64 -18 26
5 37 2 47 -11 8 -12 26 -18 49 -18 34 0 36 -2 36 -33 0 -27 -7 -38 -42 -63
-22 -16 -48 -30 -56 -30 -9 0 -13 -3 -9 -6 10 -10 73 16 94 39 11 12 23 35 27
50 6 26 10 28 39 22 18 -4 38 -12 45 -17 6 -6 36 -8 65 -6 76 6 117 44 118
107 0 56 12 36 29 -50 16 -80 55 -123 158 -171 46 -21 107 -43 135 -50 l51
-11 -29 -24 c-17 -13 -48 -36 -70 -50 -143 -91 -172 -135 -162 -243 6 -67 67
-202 116 -255 15 -16 38 -47 50 -67 22 -36 41 -49 41 -28 0 13 -41 77 -73 113
-14 16 -45 65 -68 110 -38 74 -42 88 -42 153 1 87 10 102 102 165 71 48 69 46
124 89 37 28 59 31 114 15 6 -2 14 -1 18 3 3 3 -10 11 -31 17 l-36 10 69 55
c37 30 103 88 146 129 71 69 81 75 115 73 32 -2 35 -1 17 9 -11 7 -22 13 -23
15 -2 1 20 33 50 71 96 122 109 143 155 241 88 187 153 424 153 555 0 56 -21
236 -36 306 -11 52 -78 237 -110 301 -37 75 -33 88 35 97 22 3 41 10 41 14 0
13 -29 10 -75 -6 -22 -8 -41 -15 -42 -15 -2 0 -14 23 -29 51 -26 53 -103 169
-135 205 -11 11 -19 25 -19 31 0 6 -7 16 -14 23 -8 6 -20 28 -27 48 -6 20 -31
64 -55 96 -71 97 -58 153 39 176 l32 8 -29 1 c-38 1 -94 -35 -102 -65 -10 -38
4 -73 52 -137 25 -33 43 -62 40 -64 -2 -2 -48 30 -101 72 -191 149 -340 226
-607 314 -54 18 -100 36 -102 40 -3 4 2 21 10 37 38 72 112 119 224 140 l65
12 -50 0 c-27 0 -71 -7 -97 -16z m289 -2108 c7 -18 23 -18 23 0 0 13 20 26 40
26 5 0 22 -12 39 -26 17 -14 31 -23 31 -20 0 4 9 2 20 -4 11 -6 20 -17 20 -24
0 -8 7 -16 15 -20 8 -3 15 -1 15 4 0 13 43 13 56 0 8 -8 19 -7 39 2 24 11 29
10 41 -6 12 -18 14 -18 40 3 33 26 44 20 44 -25 0 -27 -5 -37 -25 -46 -25 -11
-34 -33 -16 -40 13 -5 1 -68 -14 -68 -7 0 -15 -14 -19 -31 -4 -20 -26 -50 -63
-85 -32 -30 -61 -54 -65 -54 -4 0 -19 -12 -33 -26 -20 -20 -33 -25 -55 -20
-24 4 -29 2 -32 -17 -5 -34 -102 -66 -201 -66 -71 -1 -79 1 -84 19 -3 11 -12
20 -21 20 -18 0 -41 29 -42 52 0 9 8 24 17 34 13 13 14 19 5 22 -15 5 -16 34
-1 49 8 8 8 17 0 31 -16 29 -14 39 10 61 20 18 20 21 5 36 -20 21 -20 29 1 50
14 14 15 20 4 38 -12 18 -11 22 5 34 10 7 22 13 27 13 5 0 18 11 29 25 11 14
27 25 37 25 9 0 21 12 27 28 10 25 15 28 43 24 18 -2 35 -11 38 -18z m-1047
-139 c14 -13 22 -14 43 -4 28 13 75 0 103 -29 11 -10 18 -11 28 -3 22 19 147
11 172 -10 7 -6 22 -4 40 6 41 21 81 19 96 -5 15 -23 28 -26 28 -6 0 20 25 26
90 22 44 -2 57 -7 65 -23 6 -12 17 -28 24 -37 7 -9 11 -27 9 -41 -4 -19 -1
-25 13 -25 11 0 20 -3 20 -7 6 -34 4 -71 -4 -88 -6 -11 -10 -37 -8 -57 1 -21
-3 -38 -9 -38 -5 0 -20 -10 -32 -22 -29 -29 -104 -32 -119 -6 -5 9 -17 14 -26
12 -10 -2 -23 -1 -28 3 -11 8 -47 114 -50 144 -2 22 -47 78 -63 78 -9 1 -10
-4 -2 -18 5 -11 10 -36 10 -55 0 -31 3 -35 22 -33 19 2 25 -6 37 -42 11 -37
12 -45 0 -52 -26 -17 -64 -6 -67 19 -3 19 -8 23 -25 17 -59 -19 -74 -17 -94 9
-13 16 -31 26 -46 26 -28 0 -57 23 -57 45 0 11 -8 13 -30 8 -22 -4 -36 0 -50
12 -21 19 -27 45 -10 45 6 0 10 5 10 10 0 6 -13 10 -29 10 -28 0 -101 49 -73
50 23 0 13 30 -11 30 -27 0 -47 17 -47 41 0 30 43 38 70 14z m791 -157 c5 -74
4 -120 -2 -130 -10 -17 -16 2 -23 80 -6 61 -5 72 8 72 10 0 17 -9 17 -22z"/>
<path d="M1837 3674 c-16 -8 -35 -13 -42 -10 -7 2 -30 0 -50 -7 -41 -12 -67
-51 -58 -85 3 -12 -2 -40 -11 -62 -17 -43 -9 -86 18 -96 10 -4 13 -15 9 -39
-4 -25 0 -38 16 -54 11 -11 21 -28 21 -37 0 -9 14 -41 31 -70 36 -63 52 -70
147 -59 37 4 72 7 77 6 65 -9 245 -20 263 -16 14 3 29 -1 39 -11 11 -10 27
-14 47 -11 18 2 41 -2 53 -10 14 -10 33 -13 49 -9 20 5 30 2 40 -13 8 -11 30
-23 48 -26 22 -5 37 -15 45 -31 6 -13 17 -24 25 -24 19 0 72 -37 113 -78 17
-17 39 -32 47 -32 9 0 16 -5 16 -10 0 -20 49 -60 74 -60 30 0 85 51 127 119
16 25 49 58 74 73 30 19 47 37 51 55 3 16 10 41 15 57 7 22 5 36 -11 61 -11
18 -20 43 -20 55 0 37 -97 124 -156 140 -27 7 -56 21 -65 31 -9 10 -29 21 -45
25 -16 4 -38 17 -49 29 -11 12 -42 28 -68 35 -44 12 -49 11 -62 -6 -8 -10 -15
-22 -15 -25 -1 -16 -51 -28 -73 -18 -25 11 -51 65 -36 75 5 3 9 16 9 30 0 18
-5 24 -23 24 -13 0 -38 11 -55 24 -20 15 -53 26 -89 30 -31 4 -62 11 -70 17
-14 13 -60 17 -273 24 -129 4 -160 2 -183 -11z m125 -15 c3 -9 9 -9 25 0 36
19 101 14 113 -9 12 -23 35 -28 27 -6 -9 24 31 31 54 10 15 -13 22 -15 31 -6
16 16 33 15 71 -2 18 -8 53 -16 79 -19 31 -3 60 -14 82 -31 19 -14 42 -26 50
-26 20 0 20 -9 -1 -32 -15 -17 -15 -19 1 -31 10 -7 15 -23 14 -37 -2 -20 1
-24 15 -22 11 2 28 -4 38 -14 18 -16 20 -16 37 -1 10 10 24 17 31 17 6 0 17
11 23 25 10 22 16 25 42 19 42 -8 77 -32 83 -55 4 -14 11 -17 28 -13 16 4 30
-1 44 -15 12 -12 42 -27 67 -33 56 -15 84 -40 77 -68 -6 -21 6 -27 22 -11 17
17 58 -25 51 -52 -4 -16 2 -32 19 -51 28 -33 32 -54 10 -62 -17 -7 -21 -34 -5
-34 21 0 -11 -40 -52 -68 -29 -18 -43 -23 -46 -14 -7 23 -22 12 -16 -13 7 -28
-9 -58 -64 -117 -39 -43 -70 -48 -97 -18 -18 20 -18 21 1 34 24 18 12 31 -15
17 -16 -9 -28 -8 -50 3 -31 16 -46 42 -31 51 21 13 8 22 -27 21 -32 -1 -39 3
-41 21 -2 17 -9 21 -30 20 -22 -2 -27 2 -25 18 2 17 -4 21 -38 21 -46 2 -62
13 -64 46 -1 13 -4 22 -6 21 -2 0 -17 -7 -33 -14 -24 -11 -32 -11 -58 4 -22
13 -34 14 -49 7 -14 -8 -23 -6 -40 11 -19 19 -26 20 -56 11 -46 -14 -61 -7
-56 26 3 25 3 26 -8 6 -8 -16 -23 -23 -65 -27 -70 -7 -110 4 -105 29 3 18 2
18 -17 0 -25 -22 -124 -36 -170 -24 -27 7 -32 13 -32 37 0 20 -6 30 -20 34
-15 4 -20 14 -20 41 0 24 -5 36 -14 36 -30 0 -36 69 -6 77 28 7 25 23 -4 23
-28 0 -56 24 -56 47 0 9 10 31 21 50 17 27 19 37 9 43 -8 5 -10 17 -6 34 8 31
65 59 102 50 15 -4 29 0 39 10 19 19 111 22 117 5z"/>
<path d="M1470 3623 c-19 -8 -38 -21 -43 -28 -4 -7 -20 -16 -36 -20 -16 -3
-35 -13 -42 -21 -6 -8 -20 -14 -31 -14 -27 0 -89 -33 -116 -63 -13 -13 -41
-32 -62 -42 -24 -11 -43 -28 -50 -46 -7 -16 -20 -29 -30 -29 -23 0 -107 -65
-115 -89 -3 -10 -18 -21 -35 -24 -34 -7 -100 -70 -100 -96 0 -10 -7 -21 -15
-24 -8 -4 -24 -25 -36 -49 -12 -24 -32 -53 -45 -64 -14 -14 -25 -39 -29 -70
-4 -27 -10 -64 -15 -81 -7 -29 -5 -36 21 -57 57 -48 216 -73 286 -45 15 7 44
11 64 10 20 -1 56 5 80 12 52 17 199 20 236 6 47 -17 85 5 134 76 24 36 51 68
60 70 9 3 34 25 56 48 21 23 58 59 81 80 35 32 42 44 41 75 0 22 -12 57 -30
87 -60 102 -69 128 -58 166 8 25 7 42 -2 64 -13 34 -13 74 2 123 16 49 0 62
-75 61 -33 0 -77 -7 -96 -16z m149 -2 c10 -6 11 -18 6 -37 -4 -16 -9 -42 -11
-58 -2 -15 -11 -34 -21 -42 -17 -13 -17 -13 3 -14 34 0 44 -46 22 -95 -6 -14
-17 -25 -25 -25 -7 0 -13 -5 -13 -11 0 -6 9 -8 20 -4 15 5 22 0 30 -21 6 -14
19 -38 30 -52 25 -32 25 -42 -1 -42 -11 0 -17 -5 -14 -10 4 -6 10 -8 15 -5 26
16 60 -35 52 -81 -1 -11 -21 -38 -43 -60 -38 -37 -40 -38 -45 -16 -9 32 -25
27 -18 -6 9 -43 -39 -96 -78 -88 -26 5 -28 3 -23 -14 3 -11 1 -25 -5 -32 -6
-7 -24 -32 -41 -56 -42 -58 -109 -72 -109 -22 l0 20 -20 -20 c-24 -24 -60 -27
-60 -5 0 8 -4 15 -9 15 -5 0 -11 -7 -15 -15 -7 -18 -47 -20 -64 -3 -9 9 -15
10 -20 2 -9 -14 -101 -41 -124 -36 -10 2 -18 12 -18 23 0 10 -4 19 -10 19 -5
0 -10 -9 -10 -20 0 -43 -124 -56 -225 -24 -79 26 -88 39 -81 107 3 32 9 69 12
82 7 27 32 33 52 13 6 -6 15 -8 19 -3 5 4 2 10 -4 12 -7 3 -13 13 -13 24 0 31
39 99 56 99 11 0 14 5 10 16 -9 23 20 64 45 64 11 0 18 4 15 9 -7 10 17 21 45
21 12 0 24 12 33 35 17 40 71 77 104 72 18 -3 24 2 30 27 5 19 21 39 40 51 17
11 62 41 98 68 44 31 73 45 85 42 11 -4 26 2 38 14 25 25 40 27 47 6 4 -8 11
-15 16 -15 6 0 8 7 5 15 -19 48 138 110 192 76z"/>
<path d="M3170 3134 c0 -9 5 -14 12 -12 18 6 21 28 4 28 -9 0 -16 -7 -16 -16z"/>
<path d="M3217 3062 c-12 -13 -27 -17 -50 -14 -25 3 -41 -3 -65 -23 -18 -15
-32 -32 -32 -39 0 -7 -11 -18 -24 -25 -13 -8 -26 -26 -30 -41 -3 -16 -14 -31
-25 -35 -11 -3 -34 -22 -51 -41 -31 -36 -33 -55 -20 -179 1 -5 8 10 15 35 9
27 11 46 5 48 -6 2 -10 16 -10 32 0 37 75 106 97 88 19 -15 29 -2 13 17 -20
24 2 65 35 65 22 0 25 4 20 19 -9 31 29 64 68 59 18 -3 41 -9 51 -13 16 -7 18
-5 13 8 -8 20 18 48 38 41 8 -4 15 -10 15 -15 0 -5 6 -9 13 -9 20 0 87 -73 87
-95 0 -10 -7 -27 -17 -37 -18 -21 -11 -37 10 -20 10 9 18 8 32 -2 14 -10 17
-21 12 -49 -5 -32 -3 -38 21 -49 22 -11 27 -20 28 -54 0 -22 8 -51 16 -64 16
-26 19 -85 5 -107 -5 -7 -19 -13 -33 -13 -14 0 -24 -6 -24 -15 0 -8 -9 -19
-21 -25 -19 -11 -20 -13 -4 -30 23 -26 15 -55 -14 -54 -13 0 -34 -10 -48 -24
-20 -20 -31 -23 -61 -18 -20 3 -66 9 -101 15 -58 8 -74 17 -84 46 -2 6 -10 5
-20 -3 -9 -8 -26 -12 -39 -10 -18 2 -23 9 -21 31 1 15 -2 27 -8 27 -5 0 -9 -5
-9 -10 0 -6 -12 -15 -26 -21 -21 -7 -31 -6 -45 7 -24 22 -24 29 1 64 16 23 19
37 14 69 -8 52 -28 54 -22 4 3 -26 -1 -48 -14 -68 -10 -16 -18 -36 -18 -43 0
-22 51 -63 71 -57 10 3 30 -1 44 -11 15 -10 36 -14 53 -11 17 3 33 0 44 -10 9
-8 38 -17 65 -19 26 -2 67 -9 89 -16 37 -10 46 -9 83 10 23 12 50 22 60 22 26
0 43 24 41 57 -3 42 10 73 30 73 45 0 70 101 34 141 -9 10 -17 38 -18 65 -1
34 -8 51 -24 64 -12 10 -22 29 -22 43 0 13 -9 36 -20 50 -11 14 -20 36 -20 49
-1 28 -42 78 -93 112 -45 31 -68 33 -90 8z"/>
<path d="M1987 3059 c-10 -6 -26 -8 -35 -4 -9 3 -36 1 -61 -4 -25 -6 -63 -13
-83 -16 -38 -6 -99 -48 -168 -117 -20 -21 -41 -38 -45 -38 -12 0 -65 -51 -65
-62 0 -5 -15 -21 -32 -37 -29 -26 -33 -35 -31 -76 1 -26 6 -52 12 -58 6 -6 11
-30 11 -53 0 -27 7 -51 21 -68 11 -15 19 -33 16 -41 -8 -20 12 -85 29 -92 8
-3 19 -25 25 -49 8 -29 18 -45 32 -50 11 -3 32 -20 45 -36 34 -40 96 -78 128
-78 14 0 32 -7 40 -15 9 -8 24 -15 35 -15 11 0 34 -7 50 -16 17 -8 36 -13 42
-11 7 2 25 -5 40 -15 21 -15 40 -19 80 -17 29 2 66 -2 85 -10 26 -11 35 -11
47 -1 12 10 25 10 58 2 83 -21 116 -23 150 -8 32 14 55 20 133 35 41 7 61 19
92 55 9 11 38 40 65 66 26 26 47 57 47 68 0 14 11 27 35 37 24 12 38 27 46 53
7 21 18 46 25 57 11 18 14 59 15 221 0 57 -45 116 -106 140 -37 14 -49 25 -61
53 -20 51 -74 85 -120 78 -28 -5 -43 -1 -62 13 -13 11 -34 20 -46 20 -13 0
-32 13 -45 31 -29 39 -79 60 -144 60 -29 0 -104 1 -167 4 -69 2 -122 0 -133
-6z m111 -14 c12 -3 22 -13 22 -20 0 -8 5 -17 12 -21 8 -5 9 0 5 15 -12 49 75
53 94 3 11 -26 11 -26 19 -5 5 12 18 24 29 28 20 6 86 -8 106 -22 19 -14 55
-71 55 -87 0 -9 5 -16 10 -16 6 0 10 7 10 15 0 30 51 15 63 -18 5 -14 11 -16
26 -7 55 29 122 -4 142 -71 9 -29 17 -39 33 -39 50 0 126 -75 126 -124 0 -11
-12 -33 -27 -49 l-28 -29 33 7 c27 6 32 4 32 -12 0 -11 -5 -24 -11 -30 -9 -9
-9 -19 0 -42 15 -34 3 -66 -29 -76 -16 -5 -18 -9 -8 -25 10 -16 9 -24 -8 -47
-12 -16 -33 -29 -47 -31 -23 -3 -27 -8 -27 -38 0 -29 -6 -39 -45 -66 -25 -17
-47 -40 -50 -49 -4 -10 -12 -16 -20 -13 -8 3 -19 -6 -27 -23 -15 -31 -58 -45
-58 -19 0 22 -17 20 -30 -4 -6 -11 -18 -20 -26 -20 -12 0 -15 7 -12 30 6 40
-8 49 -15 10 -10 -46 -43 -73 -80 -66 -18 4 -45 8 -62 10 -16 1 -38 3 -47 4
-11 1 -18 10 -18 22 0 11 -4 20 -10 20 -5 0 -10 -6 -10 -14 0 -26 -28 -40 -56
-27 l-25 11 31 41 c18 22 30 43 26 46 -3 3 -16 -7 -28 -23 -45 -57 -56 -64
-106 -64 -36 0 -50 5 -60 20 -9 14 -21 19 -45 18 -30 -3 -32 -1 -29 27 l2 30
-18 -24 c-15 -19 -25 -22 -46 -17 -27 7 -33 25 -17 54 15 30 22 72 11 72 -5 0
-10 -10 -10 -22 -1 -27 -17 -50 -47 -66 -18 -10 -29 -8 -65 12 -24 13 -52 36
-63 50 -17 23 -18 28 -5 36 11 7 5 10 -22 10 -33 0 -38 3 -48 36 -11 31 -10
37 7 50 17 14 16 15 -10 11 -21 -3 -32 1 -43 19 -22 33 -14 58 21 64 38 7 34
26 -4 22 -34 -3 -61 31 -61 78 0 25 4 30 24 30 14 0 28 5 31 10 4 6 -6 10 -22
10 -40 0 -50 10 -57 55 -9 60 37 108 72 73 9 -9 12 -8 12 8 0 11 -4 24 -10 30
-14 14 16 54 40 54 12 0 30 16 45 40 14 22 32 40 39 40 8 0 33 18 56 40 52 50
105 63 131 31 23 -28 33 -27 25 4 -6 22 -3 25 22 25 15 0 34 -6 40 -12 10 -10
14 -10 21 0 9 15 59 32 81 27 8 -2 25 -6 38 -10z"/>
<path d="M1164 2747 c-12 -9 -26 -12 -33 -7 -8 4 -29 3 -48 -2 -18 -5 -43 -6
-54 -3 -11 4 -33 -1 -52 -12 -37 -21 -131 -23 -189 -4 -32 11 -42 10 -66 -5
-46 -26 -63 -64 -56 -120 6 -54 22 -104 33 -104 4 0 34 -26 67 -59 33 -32 71
-62 84 -66 13 -4 32 -18 42 -30 28 -36 182 -60 215 -33 8 7 20 4 37 -9 20 -14
25 -24 20 -45 -4 -19 1 -37 15 -57 12 -16 21 -33 21 -39 0 -20 57 -32 142 -31
103 2 142 19 153 70 4 18 16 41 26 53 26 27 25 90 -1 116 -11 11 -23 20 -28
20 -4 0 -6 17 -4 38 3 32 0 40 -22 52 -20 10 -25 18 -19 34 14 41 -5 128 -35
158 -7 7 -12 20 -12 29 0 23 -25 41 -52 37 -13 -2 -27 2 -33 9 -16 21 -126 27
-151 10z m98 -8 c27 -7 40 -17 44 -34 7 -28 19 -32 28 -10 7 21 35 19 43 -2 4
-10 15 -29 25 -42 10 -13 15 -27 12 -32 -2 -5 3 -20 12 -34 12 -18 15 -36 10
-69 -6 -39 -4 -45 19 -60 30 -20 32 -39 5 -66 -26 -26 -25 -30 8 -30 15 0 33
-5 40 -12 19 -19 14 -76 -8 -98 -11 -11 -20 -30 -20 -42 0 -51 -85 -94 -97
-48 -7 25 -31 27 -29 3 1 -14 -8 -19 -43 -21 -63 -5 -84 3 -103 39 -22 38 -23
67 -2 90 15 17 14 19 -12 25 -16 4 -37 14 -47 22 -14 13 -21 13 -42 2 -20 -11
-27 -11 -40 0 -12 10 -18 10 -30 0 -17 -14 -84 -5 -111 15 -18 12 -17 14 5 33
l24 19 -54 -4 c-50 -4 -56 -3 -87 28 l-34 33 24 9 c23 9 23 9 -6 18 -16 4 -32
6 -36 4 -4 -2 -21 10 -38 28 -24 25 -32 44 -37 89 -7 55 -6 59 23 88 17 16 38
30 47 30 19 0 57 -19 67 -33 4 -6 12 -4 23 6 9 10 23 17 31 17 24 0 54 -19 54
-35 0 -8 5 -15 10 -15 6 0 10 8 10 18 0 11 14 26 34 37 33 18 34 18 64 -4 17
-12 33 -17 36 -12 4 5 1 13 -6 17 -7 5 -4 10 11 16 15 5 30 3 44 -7 27 -19 37
-19 37 0 0 14 26 34 45 35 6 0 27 -5 47 -11z"/>
<path d="M2861 2382 c-11 -17 -21 -36 -21 -44 0 -7 -16 -31 -35 -53 -19 -22
-35 -46 -35 -53 0 -8 -11 -27 -25 -44 -14 -16 -25 -42 -25 -57 0 -30 25 -71
44 -71 6 0 28 -16 47 -36 54 -57 89 -77 138 -81 25 -3 62 -6 81 -8 19 -1 52
-12 72 -24 50 -30 158 -59 188 -51 20 5 16 7 -23 12 -26 3 -56 12 -65 21 -9 8
-22 12 -29 10 -13 -5 -88 31 -98 46 -3 5 -22 7 -42 4 -33 -6 -36 -4 -31 15 7
25 0 27 -24 9 -13 -11 -39 -13 -79 -8 -15 2 -79 77 -79 92 0 12 -7 15 -24 12
-34 -7 -70 40 -54 71 21 41 40 57 55 45 9 -8 13 -8 13 -1 0 6 -4 14 -10 17
-17 11 -11 35 17 70 22 28 32 33 53 28 24 -6 24 -6 7 11 -22 22 -21 28 3 58
18 23 23 25 62 16 61 -14 93 -31 93 -50 0 -24 14 -33 21 -14 8 22 27 20 49 -4
17 -18 20 -19 41 -5 30 19 58 19 74 0 19 -22 99 -19 130 5 28 22 75 26 86 9 5
-8 13 -4 24 11 16 22 20 22 49 10 18 -7 39 -26 48 -43 14 -28 14 -32 -1 -42
-20 -15 -21 -25 -1 -25 20 0 19 -39 -1 -69 -11 -15 -23 -21 -35 -18 -28 8 -23
-12 6 -23 14 -5 25 -14 25 -20 0 -21 -30 -82 -55 -112 -14 -16 -25 -35 -25
-42 0 -7 -15 -27 -34 -45 -24 -23 -42 -32 -62 -31 -49 3 -61 -1 -34 -11 49
-20 125 22 160 89 55 105 71 143 66 160 -4 10 0 34 8 54 18 43 14 119 -8 153
-25 37 -72 59 -105 47 -14 -6 -45 -13 -69 -15 -24 -3 -51 -12 -60 -20 -26 -23
-87 -30 -103 -11 -9 11 -27 15 -58 13 -25 -1 -59 3 -76 10 -16 7 -48 21 -70
31 -22 10 -63 21 -91 25 -49 6 -53 5 -73 -23z"/>
<path d="M1087 2254 c-9 -10 2 -24 19 -24 8 0 14 7 14 15 0 15 -21 21 -33 9z"/>
<path d="M1581 2216 c-12 -14 -5 -26 16 -26 15 0 18 26 4 34 -5 3 -14 0 -20
-8z"/>
<path d="M1038 2196 c-27 -21 -36 -41 -20 -48 4 -1 14 -16 22 -33 9 -18 35
-40 64 -55 27 -14 55 -35 63 -47 13 -19 12 -24 -6 -42 -12 -12 -30 -21 -41
-21 -11 0 -20 -4 -20 -10 0 -14 17 -12 56 6 26 13 34 22 34 43 0 37 -17 56
-72 81 -56 26 -78 48 -59 59 7 5 11 24 9 49 l-3 40 -27 -22z"/>
<path d="M1664 2155 c-14 -14 -30 -25 -37 -25 -7 0 -23 -7 -35 -16 -25 -17
-22 -55 8 -89 10 -11 21 -35 25 -54 4 -21 17 -39 34 -49 14 -8 35 -33 46 -56
32 -64 69 -78 206 -81 64 -1 121 -5 127 -9 6 -3 80 -8 164 -11 186 -6 177 10
-11 19 -76 3 -140 11 -148 18 -10 8 -24 8 -54 -2 -31 -11 -47 -11 -72 -2 -18
6 -48 9 -68 6 -56 -9 -106 17 -129 68 -10 24 -33 54 -49 66 -32 23 -44 72 -18
72 6 0 1 6 -13 13 -28 14 -55 61 -44 78 3 6 19 9 35 5 21 -4 29 -1 34 13 9 30
34 46 47 33 7 -7 20 -12 31 -12 26 0 78 -55 71 -74 -4 -11 -1 -16 10 -16 9 0
16 5 16 10 0 17 64 11 95 -10 22 -14 39 -18 63 -14 25 5 41 1 61 -14 23 -17
36 -19 87 -13 51 6 55 8 29 14 -16 4 -42 5 -57 2 -17 -3 -40 3 -63 16 -24 14
-45 20 -64 16 -18 -4 -39 1 -60 14 -17 10 -47 19 -67 19 -22 0 -37 6 -41 16
-4 12 -113 74 -130 74 -2 0 -15 -11 -29 -25z"/>
<path d="M1510 2150 c-19 -11 -39 -21 -45 -24 -7 -2 -6 -8 1 -16 9 -9 7 -23
-8 -57 -26 -60 -21 -126 16 -184 15 -24 43 -69 62 -99 36 -57 43 -102 23 -157
-17 -50 -108 -112 -167 -114 -15 0 -36 -5 -47 -10 -14 -7 -3 -8 38 -5 69 6
122 34 166 90 26 32 31 48 31 93 0 56 -14 89 -86 203 -27 43 -34 64 -34 105 0
53 19 102 38 98 6 -2 19 12 28 30 9 17 23 40 32 50 21 24 -2 22 -48 -3z"/>
<path d="M2561 2076 c-9 -11 -30 -16 -66 -16 -32 0 -57 -5 -64 -13 -7 -10 -30
-13 -73 -11 -67 3 -138 -10 -138 -26 0 -6 10 -6 26 0 40 16 91 12 98 -6 6 -15
8 -15 26 1 11 10 26 15 36 11 10 -4 25 1 35 10 13 12 28 15 50 10 23 -4 41 0
65 15 49 30 101 18 112 -25 7 -25 14 -32 38 -34 41 -5 76 -39 64 -63 -6 -10
-10 -27 -10 -39 0 -11 -8 -23 -17 -27 -10 -3 -25 -15 -34 -25 -9 -12 -33 -21
-60 -25 -24 -2 -58 -11 -74 -18 -17 -8 -64 -18 -105 -23 l-75 -9 68 -2 c43 -1
81 5 105 15 20 9 53 16 72 15 55 -2 127 49 141 101 6 22 8 50 5 62 -6 23 -53
56 -80 56 -9 0 -16 6 -16 14 0 46 -101 86 -129 52z"/>
<path d="M3425 1839 c-10 -15 1 -23 20 -15 9 3 13 10 10 16 -8 13 -22 13 -30
-1z"/>
<path d="M2632 1728 c6 -18 28 -21 28 -4 0 9 -7 16 -16 16 -9 0 -14 -5 -12
-12z"/>
</g>
</svg>
