<?xml version="1.0" standalone="no"?>
<!DOCTYPE svg PUBLIC "-//W3C//DTD SVG 20010904//EN"
 "http://www.w3.org/TR/2001/REC-SVG-20010904/DTD/svg10.dtd">
<svg version="1.0" xmlns="http://www.w3.org/2000/svg"
 width="640.000000pt" height="640.000000pt" viewBox="0 0 640.000000 640.000000"
 preserveAspectRatio="xMidYMid meet">

<g transform="translate(0.000000,640.000000) scale(0.100000,-0.100000)"
fill="#000000" stroke="none">
<path d="M2790 6205 c-741 -109 -1353 -502 -1623 -1041 -72 -144 -152 -444
-164 -618 -9 -131 12 -304 61 -502 61 -245 64 -266 89 -542 l22 -242 -45 -68
c-33 -49 -57 -74 -92 -92 -54 -28 -59 -37 -24 -46 30 -7 59 8 110 55 l39 36
-7 -49 c-7 -56 -41 -154 -120 -346 -81 -197 -91 -248 -91 -475 0 -172 2 -197
24 -265 31 -99 54 -144 110 -209 71 -84 249 -239 319 -278 268 -150 616 -211
967 -168 230 28 667 14 810 -26 106 -29 191 -111 259 -251 28 -57 53 -128 65
-182 19 -93 35 -122 51 -96 42 66 -69 357 -179 468 -122 123 -220 146 -631
146 -162 0 -398 -4 -525 -8 -261 -10 -341 -3 -512 45 -154 43 -270 102 -383
196 -271 225 -337 361 -327 663 6 178 30 276 115 481 105 250 107 262 106 499
-1 217 -30 520 -59 618 -9 28 -27 101 -40 163 -14 61 -29 117 -35 124 -5 6
-17 54 -26 106 -39 226 26 578 157 846 71 144 155 259 289 394 323 325 699
514 1205 605 123 22 500 30 675 15 488 -43 1019 -220 1395 -464 469 -303 784
-747 884 -1244 60 -296 52 -672 -19 -947 -107 -418 -300 -687 -766 -1074 -81
-67 -104 -127 -111 -287 -5 -123 10 -194 60 -272 49 -77 64 -44 23 48 -49 107
-58 268 -20 358 10 23 104 123 263 281 257 254 340 352 423 502 92 169 166
381 203 588 23 126 31 462 16 612 -25 234 -81 438 -176 637 -95 198 -148 275
-308 452 -286 316 -617 526 -1080 685 -244 83 -579 155 -806 173 -176 14 -463
12 -571 -4z"/>
<path d="M3155 5909 c22 -4 101 -7 175 -7 113 1 124 2 70 8 -94 11 -297 10
-245 -1z"/>
<path d="M2984 5876 c-28 -13 -54 -29 -58 -35 -5 -8 117 43 133 56 14 11 -32
-2 -75 -21z"/>
<path d="M3659 5860 c124 -32 247 -85 286 -124 15 -15 25 -20 25 -12 0 45
-291 167 -391 165 -22 0 7 -11 80 -29z"/>
<path d="M2440 5804 c-58 -31 -161 -93 -230 -139 -158 -104 -476 -342 -515
-386 -37 -41 -15 -26 93 61 211 172 547 400 690 468 110 52 198 56 223 10 7
-12 15 -81 19 -153 l7 -130 1 135 c2 181 1 184 -103 188 -80 2 -80 2 -185 -54z"/>
<path d="M2876 5801 c-10 -11 -16 -25 -14 -32 2 -7 12 0 22 16 21 32 16 43 -8
16z"/>
<path d="M2836 5732 c-3 -5 -12 -36 -21 -68 -30 -115 -14 -238 44 -352 40 -76
39 -53 -1 39 -40 93 -49 219 -24 318 15 59 16 85 2 63z"/>
<path d="M3981 5655 c-1 -36 46 -125 66 -125 10 0 43 16 73 35 52 34 58 35
155 36 110 1 90 16 -25 18 -59 1 -72 -3 -120 -34 -82 -52 -95 -47 -130 42 -11
26 -19 39 -19 28z"/>
<path d="M4470 5548 c19 -11 66 -41 103 -65 38 -24 71 -42 73 -40 6 5 -113 85
-163 111 -46 23 -54 20 -13 -6z"/>
<path d="M2731 5494 c-1 -36 26 -120 62 -189 37 -70 33 -51 -12 67 -21 57 -41
114 -44 128 -4 22 -4 21 -6 -6z"/>
<path d="M4716 5355 c9 -16 29 -48 43 -69 24 -36 26 -49 26 -140 0 -100 0
-101 -39 -161 -25 -38 -31 -53 -17 -41 12 11 35 48 52 82 27 55 31 71 27 127
-4 68 -38 149 -84 202 l-26 30 18 -30z"/>
<path d="M1566 5159 c-37 -40 -64 -75 -60 -78 6 -6 109 101 125 132 17 31 2
18 -65 -54z"/>
<path d="M2936 5209 c19 -31 80 -42 249 -44 94 -2 145 -1 115 1 -254 19 -301
24 -329 38 -35 19 -45 20 -35 5z"/>
<path d="M2832 5160 c0 -14 2 -19 5 -12 2 6 2 18 0 25 -3 6 -5 1 -5 -13z"/>
<path d="M3551 5146 c5 -5 206 -46 223 -46 30 1 -28 20 -105 34 -85 16 -126
20 -118 12z"/>
<path d="M3825 5080 c11 -5 27 -9 35 -9 13 -1 13 0 0 9 -8 5 -24 9 -35 9 l-20
0 20 -9z"/>
<path d="M2722 4975 c-51 -49 -92 -94 -92 -98 0 -12 170 144 182 166 5 10 8
19 6 20 -2 1 -45 -38 -96 -88z"/>
<path d="M1435 5008 c-45 -61 -75 -135 -74 -181 1 -26 3 -22 10 17 5 31 26 76
59 128 28 44 49 82 47 84 -2 2 -21 -20 -42 -48z"/>
<path d="M4029 5001 c68 -34 129 -60 135 -58 13 5 -187 103 -229 113 -16 3 26
-21 94 -55z"/>
<path d="M3094 5024 c-18 -14 -18 -15 4 -4 12 6 22 13 22 15 0 8 -5 6 -26 -11z"/>
<path d="M3528 5033 c6 -2 18 -2 25 0 6 3 1 5 -13 5 -14 0 -19 -2 -12 -5z"/>
<path d="M3735 5010 c3 -5 23 -10 43 -9 33 1 34 2 12 9 -36 12 -62 12 -55 0z"/>
<path d="M3032 4997 c-6 -7 -48 -28 -94 -47 -46 -18 -93 -42 -105 -53 -26 -24
-22 -38 4 -15 10 8 49 27 88 43 58 24 145 84 124 85 -4 0 -11 -6 -17 -13z"/>
<path d="M4945 4990 c-3 -5 -1 -10 4 -10 6 0 11 5 11 10 0 6 -2 10 -4 10 -3 0
-8 -4 -11 -10z"/>
<path d="M4988 4993 c6 -2 18 -2 25 0 6 3 1 5 -13 5 -14 0 -19 -2 -12 -5z"/>
<path d="M4834 4941 c-70 -47 -94 -66 -94 -74 0 -4 37 19 83 49 95 65 93 64
80 64 -5 0 -36 -18 -69 -39z"/>
<path d="M5060 4977 c0 -2 19 -16 43 -31 23 -15 60 -52 82 -81 21 -30 41 -52
44 -50 7 8 -67 110 -97 132 -27 20 -72 39 -72 30z"/>
<path d="M3918 4963 c7 -3 16 -2 19 1 4 3 -2 6 -13 5 -11 0 -14 -3 -6 -6z"/>
<path d="M3990 4906 c0 -3 9 -10 20 -16 11 -6 20 -8 20 -6 0 3 -9 10 -20 16
-11 6 -20 8 -20 6z"/>
<path d="M4090 4896 c0 -3 9 -10 20 -16 11 -6 20 -8 20 -6 0 3 -9 10 -20 16
-11 6 -20 8 -20 6z"/>
<path d="M4235 4882 c11 -9 47 -48 80 -87 32 -38 69 -78 82 -88 26 -21 71 -25
99 -9 16 10 10 11 -33 12 l-51 0 -88 95 c-48 52 -92 95 -98 95 -6 -1 -2 -8 9
-18z"/>
<path d="M4646 4848 c-40 -46 -49 -74 -13 -40 22 21 62 82 53 82 -2 0 -21 -19
-40 -42z"/>
<path d="M4097 4849 c7 -7 15 -10 18 -7 3 3 -2 9 -12 12 -14 6 -15 5 -6 -5z"/>
<path d="M2769 4823 l-24 -28 28 24 c25 23 32 31 24 31 -2 0 -14 -12 -28 -27z"/>
<path d="M2547 4768 c-30 -40 -71 -88 -90 -107 -36 -34 -36 -34 -109 -28 -40
4 -91 9 -113 12 -25 3 -15 -2 30 -14 132 -36 178 -23 254 71 47 57 97 138 87
138 -3 0 -30 -33 -59 -72z"/>
<path d="M4172 4818 c2 -7 29 -25 59 -41 36 -18 46 -21 29 -8 -84 66 -95 73
-88 49z"/>
<path d="M4653 4773 c-40 -53 -65 -94 -60 -99 2 -2 17 15 32 38 15 24 37 53
48 65 11 13 18 25 15 28 -3 3 -19 -11 -35 -32z"/>
<path d="M1361 4749 c-1 -43 3 -50 44 -88 59 -54 66 -52 16 5 -24 28 -44 62
-50 87 l-9 42 -1 -46z"/>
<path d="M2652 4733 c-38 -51 -39 -53 -7 -18 33 37 60 75 53 75 -2 0 -23 -26
-46 -57z"/>
<path d="M4554 4746 c-10 -8 -16 -17 -13 -20 3 -3 14 1 25 8 10 8 16 17 13 20
-3 3 -14 -1 -25 -8z"/>
<path d="M5271 4708 c11 -29 22 -56 25 -60 3 -4 13 -45 24 -90 13 -59 19 -73
19 -48 2 57 -60 250 -80 250 -5 0 1 -23 12 -52z"/>
<path d="M4300 4737 c0 -3 12 -12 26 -22 15 -9 23 -12 20 -6 -7 11 -46 35 -46
28z"/>
<path d="M4275 4720 c3 -5 8 -10 11 -10 2 0 4 5 4 10 0 6 -5 10 -11 10 -5 0
-7 -4 -4 -10z"/>
<path d="M4360 4696 c0 -2 8 -10 18 -17 15 -13 16 -12 3 4 -13 16 -21 21 -21
13z"/>
<path d="M1975 4644 c-16 -8 -50 -23 -75 -34 -35 -16 -38 -19 -15 -15 37 7
156 63 135 64 -8 0 -28 -7 -45 -15z"/>
<path d="M2561 4629 c-6 -18 -9 -34 -7 -36 2 -2 9 10 15 28 6 18 9 34 7 36 -2
2 -9 -10 -15 -28z"/>
<path d="M4457 4593 c10 -18 20 -28 22 -22 2 6 -6 21 -19 33 l-21 21 18 -32z"/>
<path d="M1500 4600 c8 -5 24 -9 35 -9 l20 0 -20 9 c-11 5 -27 9 -35 9 -13 1
-13 0 0 -9z"/>
<path d="M2586 4583 c-6 -14 -5 -15 5 -6 7 7 10 15 7 18 -3 3 -9 -2 -12 -12z"/>
<path d="M2571 4553 c-1 -6 -4 -20 -7 -30 -5 -17 -5 -17 6 0 6 10 9 23 6 30
-3 9 -5 9 -5 0z"/>
<path d="M2001 4535 c-61 -14 -90 -25 -60 -25 8 0 55 7 104 15 100 17 211 19
268 6 39 -9 53 2 15 13 -42 11 -262 5 -327 -9z"/>
<path d="M4480 4535 c0 -5 5 -17 10 -25 5 -8 10 -10 10 -5 0 6 -5 17 -10 25
-5 8 -10 11 -10 5z"/>
<path d="M1470 4510 c20 -13 53 -13 45 0 -3 6 -18 10 -33 10 -21 0 -24 -2 -12
-10z"/>
<path d="M2380 4518 c0 -3 15 -25 34 -47 24 -28 38 -60 47 -99 20 -98 30 -134
36 -129 11 11 -21 153 -42 192 -21 37 -75 96 -75 83z"/>
<path d="M1381 4484 c-29 -24 -31 -31 -31 -89 0 -35 4 -67 10 -70 6 -4 8 16 3
55 -6 59 -5 62 27 96 40 40 35 45 -9 8z"/>
<path d="M2551 4483 c-1 -6 -4 -20 -7 -30 -5 -17 -5 -17 6 0 6 10 9 23 6 30
-3 9 -5 9 -5 0z"/>
<path d="M5325 4358 c-10 -29 -28 -72 -42 -96 -29 -51 -25 -68 5 -20 22 36 47
98 56 141 10 45 -1 30 -19 -25z"/>
<path d="M2531 4344 c0 -11 3 -14 6 -6 3 7 2 16 -1 19 -3 4 -6 -2 -5 -13z"/>
<path d="M4497 4281 c-4 -17 -3 -21 5 -13 5 5 8 16 6 23 -3 8 -7 3 -11 -10z"/>
<path d="M1401 4248 c21 -40 105 -141 161 -195 59 -55 163 -113 200 -112 23 0
23 1 -2 11 -137 59 -217 123 -311 249 -52 70 -69 87 -48 47z"/>
<path d="M4552 4195 c0 -16 2 -22 5 -12 2 9 2 23 0 30 -3 6 -5 -1 -5 -18z"/>
<path d="M5237 4173 c-13 -13 -6 -78 11 -99 21 -26 54 -44 79 -43 12 0 7 5
-13 14 -47 21 -76 63 -72 102 4 36 4 36 -5 26z"/>
<path d="M2517 4130 c3 -25 10 -49 15 -55 6 -6 7 5 2 30 -10 58 -24 78 -17 25z"/>
<path d="M4450 4130 c-6 -11 -8 -20 -6 -20 3 0 10 9 16 20 6 11 8 20 6 20 -3
0 -10 -9 -16 -20z"/>
<path d="M2591 4100 c14 -31 19 -36 19 -24 0 6 -7 19 -16 30 -14 18 -14 18 -3
-6z"/>
<path d="M4452 3972 c-39 -80 -70 -147 -67 -150 2 -3 37 61 76 142 40 80 71
148 68 150 -2 2 -37 -62 -77 -142z"/>
<path d="M2628 4024 c6 -11 18 -28 27 -39 14 -19 15 -18 2 14 -7 19 -19 37
-26 39 -10 3 -10 0 -3 -14z"/>
<path d="M5415 3990 c21 -17 41 -28 44 -24 9 8 -47 54 -66 54 -9 0 -1 -12 22
-30z"/>
<path d="M1905 3970 c-86 -36 -73 -39 23 -5 81 28 106 24 147 -22 13 -16 25
-22 25 -15 0 8 -13 27 -29 43 -38 37 -74 37 -166 -1z"/>
<path d="M2690 3946 c0 -2 8 -10 18 -17 15 -13 16 -12 3 4 -13 16 -21 21 -21
13z"/>
<path d="M2552 3905 c0 -16 2 -22 5 -12 2 9 2 23 0 30 -3 6 -5 -1 -5 -18z"/>
<path d="M5471 3925 c0 -18 28 -61 29 -44 0 8 -7 24 -15 35 -8 10 -14 15 -14
9z"/>
<path d="M4326 3869 c-10 -17 -16 -33 -13 -35 5 -5 47 49 47 60 0 16 -18 3
-34 -25z"/>
<path d="M2104 3857 c-2 -7 0 -24 5 -38 9 -22 10 -21 10 14 1 37 -5 48 -15 24z"/>
<path d="M2792 3838 c3 -7 13 -15 24 -17 16 -3 17 -1 5 13 -16 19 -34 21 -29
4z"/>
<path d="M2515 3793 c-31 -58 -117 -98 -209 -97 -47 0 -82 6 -103 17 -18 10
-33 15 -33 12 0 -4 21 -15 47 -27 59 -26 150 -20 227 15 54 25 100 75 94 102
-2 9 -11 1 -23 -22z"/>
<path d="M4343 3753 c-24 -55 -23 -138 1 -160 17 -16 18 -16 13 -1 -16 46 -17
89 -4 141 17 66 13 74 -10 20z"/>
<path d="M5512 3760 c0 -19 2 -27 5 -17 2 9 2 25 0 35 -3 9 -5 1 -5 -18z"/>
<path d="M2907 3759 c7 -7 15 -10 18 -7 3 3 -2 9 -12 12 -14 6 -15 5 -6 -5z"/>
<path d="M2856 3719 c22 -24 191 -139 205 -139 18 0 8 10 -38 37 -27 15 -76
49 -110 75 -66 51 -88 61 -57 27z"/>
<path d="M2740 3700 c-18 -17 -30 -34 -26 -37 4 -4 23 10 44 30 44 44 28 50
-18 7z"/>
<path d="M2940 3720 c8 -5 22 -9 30 -9 10 0 8 3 -5 9 -27 12 -43 12 -25 0z"/>
<path d="M4140 3720 c-14 -4 -38 -11 -54 -15 -15 -3 -27 -8 -24 -10 6 -6 92
15 103 26 10 10 9 10 -25 -1z"/>
<path d="M4110 3680 c-8 -5 -10 -10 -5 -10 6 0 17 5 25 10 8 5 11 10 5 10 -5
0 -17 -5 -25 -10z"/>
<path d="M3110 3670 c19 -4 49 -10 65 -14 29 -7 29 -7 -4 9 -18 8 -47 14 -65
14 l-31 -1 35 -8z"/>
<path d="M3955 3665 c-16 -8 -23 -14 -15 -14 8 0 26 6 40 14 32 18 15 18 -25
0z"/>
<path d="M5477 3603 c-10 -28 -39 -77 -65 -109 -73 -90 -165 -138 -307 -160
-33 -5 -42 -9 -26 -12 42 -7 155 18 218 49 36 18 77 48 97 71 43 49 108 173
104 195 -2 9 -11 -7 -21 -34z"/>
<path d="M3308 3628 c6 -6 18 -8 28 -6 14 3 12 5 -9 10 -19 3 -25 2 -19 -4z"/>
<path d="M3860 3630 c-8 -5 -10 -10 -5 -10 6 0 17 5 25 10 8 5 11 10 5 10 -5
0 -17 -5 -25 -10z"/>
<path d="M3400 3610 c8 -5 22 -9 30 -9 10 0 8 3 -5 9 -27 12 -43 12 -25 0z"/>
<path d="M3710 3610 l-115 -6 112 -2 c66 -1 114 2 118 8 3 6 5 9 3 8 -2 -1
-55 -5 -118 -8z"/>
<path d="M2682 3555 c0 -16 5 -48 13 -70 17 -51 17 -15 0 50 -10 39 -13 44
-13 20z"/>
<path d="M4268 3539 c47 -34 57 -59 50 -124 -4 -35 -20 -64 -71 -132 -36 -48
-75 -106 -87 -128 -14 -27 -15 -32 -3 -15 10 13 50 67 89 120 87 116 112 176
94 220 -14 34 -76 90 -99 90 -8 0 4 -14 27 -31z"/>
<path d="M3200 3537 c34 -16 547 -16 605 1 33 9 23 10 -65 4 -136 -9 -394 -9
-490 0 -63 6 -71 6 -50 -5z"/>
<path d="M4395 3510 c3 -5 11 -10 16 -10 6 0 7 5 4 10 -3 6 -11 10 -16 10 -6
0 -7 -4 -4 -10z"/>
<path d="M4670 3446 c11 -10 130 -34 130 -26 0 5 -8 11 -17 13 -32 9 -118 19
-113 13z"/>
<path d="M2734 3383 c9 -17 20 -35 26 -38 18 -11 10 10 -16 40 l-25 30 15 -32z"/>
<path d="M4623 3393 c9 -2 23 -2 30 0 6 3 -1 5 -18 5 -16 0 -22 -2 -12 -5z"/>
<path d="M4870 3390 c20 -13 33 -13 25 0 -3 6 -14 10 -23 10 -15 0 -15 -2 -2
-10z"/>
<path d="M4535 3376 c-45 -14 -86 -35 -69 -36 18 0 104 31 110 41 3 5 4 9 2 8
-2 0 -21 -6 -43 -13z"/>
<path d="M4690 3380 c0 -7 106 -40 126 -40 5 1 -3 7 -17 15 -33 18 -109 35
-109 25z"/>
<path d="M4934 3361 c6 -9 84 -31 108 -31 13 1 -90 39 -105 40 -5 0 -6 -4 -3
-9z"/>
<path d="M2780 3313 c1 -33 307 -372 385 -426 17 -12 -41 52 -128 142 -86 90
-178 192 -203 227 -44 62 -54 72 -54 57z"/>
<path d="M4383 3294 l-28 -26 33 18 c17 10 32 22 32 26 0 13 -7 9 -37 -18z"/>
<path d="M4915 3293 c78 -75 136 -124 127 -108 -10 20 -91 93 -122 110 -10 5
-11 5 -5 -2z"/>
<path d="M4289 3213 c-98 -111 -120 -226 -75 -384 38 -131 124 -305 142 -287
3 4 -8 24 -24 47 -41 57 -108 224 -122 305 -21 119 0 204 71 284 40 46 64 82
55 82 -2 0 -23 -21 -47 -47z"/>
<path d="M4111 3061 c-8 -17 -11 -34 -8 -38 8 -7 29 46 24 60 -2 6 -9 -4 -16
-22z"/>
<path d="M5101 3073 c0 -10 9 -40 19 -68 14 -37 19 -44 19 -25 1 33 -17 98
-29 105 -6 4 -10 -2 -9 -12z"/>
<path d="M4082 2960 c0 -19 2 -27 5 -17 2 9 2 25 0 35 -3 9 -5 1 -5 -18z"/>
<path d="M4080 2849 c0 -22 32 -150 37 -146 5 6 -27 157 -33 157 -2 0 -4 -5
-4 -11z"/>
<path d="M5108 2796 c-39 -86 -44 -107 -19 -71 21 29 56 123 50 130 -2 1 -16
-25 -31 -59z"/>
<path d="M3250 2825 c0 -11 159 -109 245 -151 122 -59 192 -74 375 -80 132 -4
163 -2 205 13 46 17 50 21 52 53 2 27 1 31 -6 15 -5 -11 -20 -31 -34 -44 -26
-23 -27 -23 -204 -18 -137 3 -196 10 -256 26 -93 24 -215 84 -303 146 -61 44
-74 51 -74 40z"/>
<path d="M4984 2629 c-32 -27 -81 -63 -109 -79 -67 -40 -48 -38 27 2 63 33
157 112 147 122 -3 3 -32 -17 -65 -45z"/>
<path d="M1367 2592 c-10 -10 -17 -31 -17 -47 0 -24 2 -26 16 -14 14 12 44 61
44 74 0 12 -28 4 -43 -13z"/>
<path d="M1272 2587 c-16 -18 -42 -83 -42 -102 0 -8 4 -15 10 -15 11 0 57 77
62 104 4 23 -15 32 -30 13z"/>
<path d="M1157 2554 c-52 -82 -62 -160 -12 -102 32 38 61 116 47 130 -7 7 -18
-1 -35 -28z"/>
<path d="M4700 2490 l-25 -8 25 -1 c14 0 32 4 40 9 13 9 13 10 0 9 -8 -1 -26
-5 -40 -9z"/>
<path d="M4470 2480 c25 -11 158 -16 168 -6 3 3 -17 6 -45 6 -28 0 -72 2 -99
5 -41 5 -45 4 -24 -5z"/>
<path d="M5282 1090 c0 -19 2 -27 5 -17 2 9 2 25 0 35 -3 9 -5 1 -5 -18z"/>
<path d="M5162 1075 c0 -16 2 -22 5 -12 2 9 2 23 0 30 -3 6 -5 -1 -5 -18z"/>
</g>
</svg>
