<svg xmlns="http://www.w3.org/2000/svg" xmlns:xlink="http://www.w3.org/1999/xlink" version="1.1" width="256" height="256" viewBox="0 0 256 256" xml:space="preserve">

<defs>
</defs>
<g style="stroke: none; stroke-width: 0; stroke-dasharray: none; stroke-linecap: butt; stroke-linejoin: miter; stroke-miterlimit: 10; fill: none; fill-rule: nonzero; opacity: 1;" transform="translate(1.4065934065934016 1.4065934065934016) scale(2.81 2.81)" >
	<path d="M 50 27.219 c -1.608 -0.368 -3.28 -0.569 -5 -0.569 c -12.329 0 -22.324 9.995 -22.324 22.324 v 25.403 h 10 V 48.973 C 32.676 38.364 40.08 29.49 50 27.219 z" style="stroke: none; stroke-width: 1; stroke-dasharray: none; stroke-linecap: butt; stroke-linejoin: miter; stroke-miterlimit: 10; fill: rgb(219,46,46); fill-rule: nonzero; opacity: 1;" transform=" matrix(1 0 0 1 0 0) " stroke-linecap="round" />
	<path d="M 49.999 27.219" style="stroke: none; stroke-width: 1; stroke-dasharray: none; stroke-linecap: butt; stroke-linejoin: miter; stroke-miterlimit: 10; fill: rgb(241,51,51); fill-rule: nonzero; opacity: 1;" transform=" matrix(1 0 0 1 0 0) " stroke-linecap="round" />
	<path d="M 50 27.219 c -9.92 2.271 -20.324 11.145 -20.324 21.755 l 3 25.403 h 34.647 V 48.973 C 67.324 38.364 59.92 29.49 50 27.219 z" style="stroke: none; stroke-width: 1; stroke-dasharray: none; stroke-linecap: butt; stroke-linejoin: miter; stroke-miterlimit: 10; fill: rgb(65,232,35); fill-rule: nonzero; opacity: 1;" transform=" matrix(1 0 0 1 0 0) " stroke-linecap="round" />
	<path d="M 50 27.219 c -1.608 -0.368 -3.28 -0.569 -5 -0.569 c -12.329 0 -22.324 9.995 -22.324 22.324 v 25.403 h 10 V 48.973 C 32.676 38.364 40.08 29.49 50 27.219 z" style="stroke: none; stroke-width: 1; stroke-dasharray: none; stroke-linecap: butt; stroke-linejoin: miter; stroke-miterlimit: 10; fill: rgb(34,183,29); fill-rule: nonzero; opacity: 1;" transform=" matrix(1 0 0 1 0 0) " stroke-linecap="round" />
	<path d="M 75.46 74.376 H 30.605 V 86.76 H 78.87 v -8.973 C 78.87 75.903 77.344 74.376 75.46 74.376 z" style="stroke: none; stroke-width: 1; stroke-dasharray: none; stroke-linecap: butt; stroke-linejoin: miter; stroke-miterlimit: 10; fill: rgb(75,95,123); fill-rule: nonzero; opacity: 1;" transform=" matrix(1 0 0 1 0 0) " stroke-linecap="round" />
	<path d="M 32.605 79.433 v -5.057 H 14.54 c -1.883 0 -3.41 1.527 -3.41 3.41 v 7.459 c 0 1.883 1.527 3.41 3.41 3.41 h 60.92 c 1.883 0 3.41 -1.527 3.41 -3.41 V 84.76 H 37.932 C 34.99 84.76 32.605 82.375 32.605 79.433 z" style="stroke: none; stroke-width: 1; stroke-dasharray: none; stroke-linecap: butt; stroke-linejoin: miter; stroke-miterlimit: 10; fill: rgb(55,70,91); fill-rule: nonzero; opacity: 1;" transform=" matrix(1 0 0 1 0 0) " stroke-linecap="round" />
	<path d="M 67.323 75.376 H 22.676 c -0.552 0 -1 -0.447 -1 -1 V 48.974 c 0 -12.861 10.463 -23.324 23.324 -23.324 c 12.86 0 23.323 10.463 23.323 23.324 v 25.402 C 68.323 74.929 67.876 75.376 67.323 75.376 z M 23.676 73.376 h 42.647 V 48.974 c 0 -11.758 -9.565 -21.324 -21.323 -21.324 s -21.324 9.566 -21.324 21.324 V 73.376 z" style="stroke: none; stroke-width: 1; stroke-dasharray: none; stroke-linecap: butt; stroke-linejoin: miter; stroke-miterlimit: 10; fill: rgb(0,0,0); fill-rule: nonzero; opacity: 1;" transform=" matrix(1 0 0 1 0 0) " stroke-linecap="round" />
	<path d="M 75.46 89.655 H 14.54 c -2.432 0 -4.411 -1.979 -4.411 -4.41 v -7.459 c 0 -2.432 1.979 -4.41 4.411 -4.41 h 60.92 c 2.432 0 4.41 1.979 4.41 4.41 v 7.459 C 79.87 87.677 77.892 89.655 75.46 89.655 z M 14.54 75.376 c -1.329 0 -2.411 1.081 -2.411 2.41 v 7.459 c 0 1.329 1.082 2.41 2.411 2.41 h 60.92 c 1.329 0 2.41 -1.081 2.41 -2.41 v -7.459 c 0 -1.329 -1.081 -2.41 -2.41 -2.41 H 14.54 z" style="stroke: none; stroke-width: 1; stroke-dasharray: none; stroke-linecap: butt; stroke-linejoin: miter; stroke-miterlimit: 10; fill: rgb(0,0,0); fill-rule: nonzero; opacity: 1;" transform=" matrix(1 0 0 1 0 0) " stroke-linecap="round" />
	<path d="M 58.374 51.903 c -0.553 0 -1 -0.447 -1 -1 c 0 -6.823 -5.551 -12.374 -12.374 -12.374 c -0.552 0 -1 -0.448 -1 -1 s 0.448 -1 1 -1 c 7.926 0 14.374 6.448 14.374 14.374 C 59.374 51.456 58.927 51.903 58.374 51.903 z" style="stroke: none; stroke-width: 1; stroke-dasharray: none; stroke-linecap: butt; stroke-linejoin: miter; stroke-miterlimit: 10; fill: rgb(0,0,0); fill-rule: nonzero; opacity: 1;" transform=" matrix(1 0 0 1 0 0) " stroke-linecap="round" />
	<path d="M 13.678 46.344 H 1 c -0.552 0 -1 -0.447 -1 -1 s 0.448 -1 1 -1 h 12.678 c 0.552 0 1 0.448 1 1 S 14.23 46.344 13.678 46.344 z" style="stroke: none; stroke-width: 1; stroke-dasharray: none; stroke-linecap: butt; stroke-linejoin: miter; stroke-miterlimit: 10; fill: rgb(0,0,0); fill-rule: nonzero; opacity: 1;" transform=" matrix(1 0 0 1 0 0) " stroke-linecap="round" />
	<path d="M 89 46.344 H 76.322 c -0.553 0 -1 -0.447 -1 -1 s 0.447 -1 1 -1 H 89 c 0.553 0 1 0.448 1 1 S 89.553 46.344 89 46.344 z" style="stroke: none; stroke-width: 1; stroke-dasharray: none; stroke-linecap: butt; stroke-linejoin: miter; stroke-miterlimit: 10; fill: rgb(0,0,0); fill-rule: nonzero; opacity: 1;" transform=" matrix(1 0 0 1 0 0) " stroke-linecap="round" />
	<path d="M 45 15.022 c -0.552 0 -1 -0.448 -1 -1 V 1.344 c 0 -0.552 0.448 -1 1 -1 s 1 0.448 1 1 v 12.678 C 46 14.574 45.552 15.022 45 15.022 z" style="stroke: none; stroke-width: 1; stroke-dasharray: none; stroke-linecap: butt; stroke-linejoin: miter; stroke-miterlimit: 10; fill: rgb(0,0,0); fill-rule: nonzero; opacity: 1;" transform=" matrix(1 0 0 1 0 0) " stroke-linecap="round" />
	<path d="M 22.852 24.196 c -0.256 0 -0.512 -0.098 -0.707 -0.293 l -8.964 -8.964 c -0.391 -0.391 -0.391 -1.023 0 -1.414 s 1.023 -0.391 1.414 0 l 8.964 8.964 c 0.391 0.391 0.391 1.023 0 1.414 C 23.363 24.098 23.107 24.196 22.852 24.196 z" style="stroke: none; stroke-width: 1; stroke-dasharray: none; stroke-linecap: butt; stroke-linejoin: miter; stroke-miterlimit: 10; fill: rgb(0,0,0); fill-rule: nonzero; opacity: 1;" transform=" matrix(1 0 0 1 0 0) " stroke-linecap="round" />
	<path d="M 67.148 24.196 c -0.256 0 -0.512 -0.098 -0.707 -0.293 c -0.391 -0.391 -0.391 -1.023 0 -1.414 l 8.964 -8.964 c 0.391 -0.391 1.023 -0.391 1.414 0 s 0.391 1.023 0 1.414 l -8.964 8.964 C 67.66 24.098 67.404 24.196 67.148 24.196 z" style="stroke: none; stroke-width: 1; stroke-dasharray: none; stroke-linecap: butt; stroke-linejoin: miter; stroke-miterlimit: 10; fill: rgb(0,0,0); fill-rule: nonzero; opacity: 1;" transform=" matrix(1 0 0 1 0 0) " stroke-linecap="round" />
</g>
</svg>